<svg width="157" height="39" viewBox="0 0 157 39" fill="none" xmlns="http://www.w3.org/2000/svg">
<path d="M16.74 13.8C16.26 11.4 14.28 8.28 9.12 8.28C5.1 8.28 1.71 11.16 1.71 14.94C1.71 18.15 3.9 20.34 7.29 21.03L10.26 21.63C11.91 21.96 12.84 22.92 12.84 24.15C12.84 25.65 11.61 26.76 9.39 26.76C6.39 26.76 4.92 24.87 4.74 22.77L0.9 23.79C1.23 26.82 3.72 30.45 9.36 30.45C14.31 30.45 17.04 27.15 17.04 23.88C17.04 20.88 14.97 18.36 11.1 17.61L8.13 17.04C6.57 16.74 5.82 15.81 5.82 14.64C5.82 13.23 7.14 11.94 9.15 11.94C11.85 11.94 12.81 13.77 13.02 14.94L16.74 13.8ZM25.302 10.83H21.702V12.9C21.702 14.22 20.982 15.24 19.422 15.24H18.672V18.78H21.342V25.65C21.342 28.5 23.142 30.21 26.022 30.21C27.192 30.21 27.912 30 28.272 29.85V26.55C28.062 26.61 27.522 26.67 27.042 26.67C25.902 26.67 25.302 26.25 25.302 24.96V18.78H28.272V15.24H25.302V10.83ZM34.4248 20.94C34.5148 19.59 35.6548 18.03 37.7248 18.03C40.0048 18.03 40.9648 19.47 41.0248 20.94H34.4248ZM41.4148 24.78C40.9348 26.1 39.9148 27.03 38.0548 27.03C36.0748 27.03 34.4248 25.62 34.3348 23.67H44.8948C44.8948 23.61 44.9548 23.01 44.9548 22.44C44.9548 17.7 42.2248 14.79 37.6648 14.79C33.8848 14.79 30.4048 17.85 30.4048 22.56C30.4048 27.54 33.9748 30.45 38.0248 30.45C41.6548 30.45 43.9948 28.32 44.7448 25.77L41.4148 24.78ZM61.7238 15.24H57.5238L54.0138 25.14L50.3538 15.24H45.9738L52.0038 30H55.9938L61.7238 15.24ZM68.1415 30V15.24H64.1515V30H68.1415ZM63.6715 10.41C63.6715 11.73 64.7815 12.84 66.1315 12.84C67.5115 12.84 68.5915 11.73 68.5915 10.41C68.5915 9.03 67.5115 7.92 66.1315 7.92C64.7815 7.92 63.6715 9.03 63.6715 10.41ZM71.5132 25.98C71.5132 28.29 73.4332 30.42 76.5832 30.42C78.7732 30.42 80.1832 29.4 80.9332 28.23C80.9332 28.8 80.9932 29.61 81.0832 30H84.7432C84.6532 29.49 84.5632 28.44 84.5632 27.66V20.4C84.5632 17.43 82.8232 14.79 78.1432 14.79C74.1832 14.79 72.0532 17.34 71.8132 19.65L75.3532 20.4C75.4732 19.11 76.4332 18 78.1732 18C79.8532 18 80.6632 18.87 80.6632 19.92C80.6632 20.43 80.3932 20.85 79.5532 20.97L75.9232 21.51C73.4632 21.87 71.5132 23.34 71.5132 25.98ZM77.4232 27.45C76.1332 27.45 75.5032 26.61 75.5032 25.74C75.5032 24.6 76.3132 24.03 77.3332 23.88L80.6632 23.37V24.03C80.6632 26.64 79.1032 27.45 77.4232 27.45Z" fill="#EF4B4B"/>
<path d="M98.312 30H100.136L97.432 25.248C99.144 24.928 100.184 23.664 100.184 22.032C100.184 20.16 98.856 18.656 96.712 18.656H92.44V30H94.024V25.36H95.72L98.312 30ZM94.024 23.952V20.064H96.424C97.704 20.064 98.568 20.832 98.568 22.032C98.568 23.2 97.704 23.952 96.424 23.952H94.024ZM102.85 25.36C102.914 24.368 103.682 23.392 104.946 23.392C106.306 23.392 107.026 24.256 107.058 25.36H102.85ZM107.282 27.36C106.994 28.224 106.37 28.912 105.122 28.912C103.826 28.912 102.834 27.952 102.802 26.576H108.594C108.61 26.48 108.626 26.288 108.626 26.096C108.626 23.696 107.298 22.064 104.93 22.064C102.994 22.064 101.25 23.712 101.25 26.128C101.25 28.736 103.058 30.24 105.122 30.24C106.914 30.24 108.146 29.168 108.578 27.808L107.282 27.36ZM113.778 23.456C115.09 23.456 115.65 24.336 115.842 25.088L117.202 24.512C116.882 23.344 115.826 22.064 113.778 22.064C111.586 22.064 109.906 23.744 109.906 26.144C109.906 28.48 111.554 30.24 113.794 30.24C115.794 30.24 116.898 28.944 117.266 27.84L115.938 27.264C115.762 27.872 115.234 28.848 113.794 28.848C112.546 28.848 111.442 27.904 111.442 26.144C111.442 24.352 112.562 23.456 113.778 23.456ZM123.302 22.224C123.222 22.208 123.014 22.176 122.806 22.176C122.022 22.176 121.062 22.464 120.502 23.648V22.304H119.03V30H120.534V26.144C120.534 24.448 121.382 23.776 122.646 23.776C122.854 23.776 123.078 23.792 123.302 23.824V22.224ZM130.055 29.072C130.055 29.392 130.087 29.824 130.119 30H131.559C131.527 29.728 131.479 29.184 131.479 28.576V22.304H129.975V26.944C129.975 28.112 129.367 28.912 128.151 28.912C126.887 28.912 126.407 27.984 126.407 26.928V22.304H124.903V27.152C124.903 28.896 125.991 30.24 127.783 30.24C128.679 30.24 129.639 29.872 130.055 29.072ZM135.534 30V22.304H134.046V30H135.534ZM133.71 19.392C133.71 19.984 134.19 20.464 134.782 20.464C135.39 20.464 135.87 19.984 135.87 19.392C135.87 18.784 135.39 18.304 134.782 18.304C134.19 18.304 133.71 18.784 133.71 19.392ZM140.109 19.872H138.733V21.12C138.733 21.792 138.381 22.304 137.549 22.304H137.133V23.664H138.605V27.888C138.605 29.28 139.437 30.08 140.749 30.08C141.261 30.08 141.645 29.984 141.773 29.936V28.656C141.645 28.688 141.373 28.72 141.181 28.72C140.397 28.72 140.109 28.368 140.109 27.664V23.664H141.773V22.304H140.109V19.872ZM144.678 25.36C144.742 24.368 145.51 23.392 146.774 23.392C148.134 23.392 148.854 24.256 148.886 25.36H144.678ZM149.11 27.36C148.822 28.224 148.198 28.912 146.95 28.912C145.654 28.912 144.662 27.952 144.63 26.576H150.422C150.438 26.48 150.454 26.288 150.454 26.096C150.454 23.696 149.126 22.064 146.758 22.064C144.822 22.064 143.078 23.712 143.078 26.128C143.078 28.736 144.886 30.24 146.95 30.24C148.742 30.24 149.974 29.168 150.406 27.808L149.11 27.36ZM156.646 22.224C156.566 22.208 156.358 22.176 156.15 22.176C155.366 22.176 154.406 22.464 153.846 23.648V22.304H152.374V30H153.878V26.144C153.878 24.448 154.726 23.776 155.99 23.776C156.198 23.776 156.422 23.792 156.646 23.824V22.224Z" fill="#303037"/>
</svg>
