<svg width="161" height="41" viewBox="0 0 161 41" fill="none" xmlns="http://www.w3.org/2000/svg">
<path d="M17.856 14.72C17.344 12.16 15.232 8.832 9.728 8.832C5.44 8.832 1.824 11.904 1.824 15.936C1.824 19.36 4.16 21.696 7.776 22.432L10.944 23.072C12.704 23.424 13.696 24.448 13.696 25.76C13.696 27.36 12.384 28.544 10.016 28.544C6.816 28.544 5.248 26.528 5.056 24.288L0.96 25.376C1.312 28.608 3.968 32.48 9.984 32.48C15.264 32.48 18.176 28.96 18.176 25.472C18.176 22.272 15.968 19.584 11.84 18.784L8.672 18.176C7.008 17.856 6.208 16.864 6.208 15.616C6.208 14.112 7.616 12.736 9.76 12.736C12.64 12.736 13.664 14.688 13.888 15.936L17.856 14.72ZM26.9888 11.552H23.1488V13.76C23.1488 15.168 22.3808 16.256 20.7168 16.256H19.9168V20.032H22.7648V27.36C22.7648 30.4 24.6848 32.224 27.7568 32.224C29.0048 32.224 29.7728 32 30.1568 31.84V28.32C29.9328 28.384 29.3568 28.448 28.8448 28.448C27.6288 28.448 26.9888 28 26.9888 26.624V20.032H30.1568V16.256H26.9888V11.552ZM36.7198 22.336C36.8158 20.896 38.0318 19.232 40.2398 19.232C42.6718 19.232 43.6958 20.768 43.7598 22.336H36.7198ZM44.1758 26.432C43.6638 27.84 42.5758 28.832 40.5918 28.832C38.4798 28.832 36.7198 27.328 36.6238 25.248H47.8878C47.8878 25.184 47.9518 24.544 47.9518 23.936C47.9518 18.88 45.0398 15.776 40.1758 15.776C36.1438 15.776 32.4318 19.04 32.4318 24.064C32.4318 29.376 36.2398 32.48 40.5598 32.48C44.4318 32.48 46.9278 30.208 47.7278 27.488L44.1758 26.432ZM65.8388 16.256H61.3588L57.6148 26.816L53.7108 16.256H49.0388L55.4708 32H59.7268L65.8388 16.256ZM72.6843 32V16.256H68.4283V32H72.6843ZM67.9163 11.104C67.9163 12.512 69.1003 13.696 70.5403 13.696C72.0123 13.696 73.1643 12.512 73.1643 11.104C73.1643 9.632 72.0123 8.448 70.5403 8.448C69.1003 8.448 67.9163 9.632 67.9163 11.104ZM76.2808 27.712C76.2808 30.176 78.3288 32.448 81.6888 32.448C84.0248 32.448 85.5288 31.36 86.3288 30.112C86.3288 30.72 86.3928 31.584 86.4888 32H90.3928C90.2968 31.456 90.2008 30.336 90.2008 29.504V21.76C90.2008 18.592 88.3448 15.776 83.3528 15.776C79.1288 15.776 76.8568 18.496 76.6008 20.96L80.3768 21.76C80.5048 20.384 81.5288 19.2 83.3848 19.2C85.1768 19.2 86.0408 20.128 86.0408 21.248C86.0408 21.792 85.7528 22.24 84.8568 22.368L80.9848 22.944C78.3608 23.328 76.2808 24.896 76.2808 27.712ZM82.5848 29.28C81.2088 29.28 80.5368 28.384 80.5368 27.456C80.5368 26.24 81.4008 25.632 82.4888 25.472L86.0408 24.928V25.632C86.0408 28.416 84.3767 29.28 82.5848 29.28Z" fill="#EF4B4B"/>
<path d="M102.312 32H104.136L101.432 27.248C103.144 26.928 104.184 25.664 104.184 24.032C104.184 22.16 102.856 20.656 100.712 20.656H96.44V32H98.024V27.36H99.72L102.312 32ZM98.024 25.952V22.064H100.424C101.704 22.064 102.568 22.832 102.568 24.032C102.568 25.2 101.704 25.952 100.424 25.952H98.024ZM106.85 27.36C106.914 26.368 107.682 25.392 108.946 25.392C110.306 25.392 111.026 26.256 111.058 27.36H106.85ZM111.282 29.36C110.994 30.224 110.37 30.912 109.122 30.912C107.826 30.912 106.834 29.952 106.802 28.576H112.594C112.61 28.48 112.626 28.288 112.626 28.096C112.626 25.696 111.298 24.064 108.93 24.064C106.994 24.064 105.25 25.712 105.25 28.128C105.25 30.736 107.058 32.24 109.122 32.24C110.914 32.24 112.146 31.168 112.578 29.808L111.282 29.36ZM117.778 25.456C119.09 25.456 119.65 26.336 119.842 27.088L121.202 26.512C120.882 25.344 119.826 24.064 117.778 24.064C115.586 24.064 113.906 25.744 113.906 28.144C113.906 30.48 115.554 32.24 117.794 32.24C119.794 32.24 120.898 30.944 121.266 29.84L119.938 29.264C119.762 29.872 119.234 30.848 117.794 30.848C116.546 30.848 115.442 29.904 115.442 28.144C115.442 26.352 116.562 25.456 117.778 25.456ZM127.302 24.224C127.222 24.208 127.014 24.176 126.806 24.176C126.022 24.176 125.062 24.464 124.502 25.648V24.304H123.03V32H124.534V28.144C124.534 26.448 125.382 25.776 126.646 25.776C126.854 25.776 127.078 25.792 127.302 25.824V24.224ZM134.055 31.072C134.055 31.392 134.087 31.824 134.119 32H135.559C135.527 31.728 135.479 31.184 135.479 30.576V24.304H133.975V28.944C133.975 30.112 133.367 30.912 132.151 30.912C130.887 30.912 130.407 29.984 130.407 28.928V24.304H128.903V29.152C128.903 30.896 129.991 32.24 131.783 32.24C132.679 32.24 133.639 31.872 134.055 31.072ZM139.534 32V24.304H138.046V32H139.534ZM137.71 21.392C137.71 21.984 138.19 22.464 138.782 22.464C139.39 22.464 139.87 21.984 139.87 21.392C139.87 20.784 139.39 20.304 138.782 20.304C138.19 20.304 137.71 20.784 137.71 21.392ZM144.109 21.872H142.733V23.12C142.733 23.792 142.381 24.304 141.549 24.304H141.133V25.664H142.605V29.888C142.605 31.28 143.437 32.08 144.749 32.08C145.261 32.08 145.645 31.984 145.773 31.936V30.656C145.645 30.688 145.373 30.72 145.181 30.72C144.397 30.72 144.109 30.368 144.109 29.664V25.664H145.773V24.304H144.109V21.872ZM148.678 27.36C148.742 26.368 149.51 25.392 150.774 25.392C152.134 25.392 152.854 26.256 152.886 27.36H148.678ZM153.11 29.36C152.822 30.224 152.198 30.912 150.95 30.912C149.654 30.912 148.662 29.952 148.63 28.576H154.422C154.438 28.48 154.454 28.288 154.454 28.096C154.454 25.696 153.126 24.064 150.758 24.064C148.822 24.064 147.078 25.712 147.078 28.128C147.078 30.736 148.886 32.24 150.95 32.24C152.742 32.24 153.974 31.168 154.406 29.808L153.11 29.36ZM160.646 24.224C160.566 24.208 160.358 24.176 160.15 24.176C159.366 24.176 158.406 24.464 157.846 25.648V24.304H156.374V32H157.878V28.144C157.878 26.448 158.726 25.776 159.99 25.776C160.198 25.776 160.422 25.792 160.646 25.824V24.224Z" fill="#EF4B4B"/>
</svg>
