<svg width="148" height="39" viewBox="0 0 148 39" fill="none" xmlns="http://www.w3.org/2000/svg">
<path d="M16.74 13.8C16.26 11.4 14.28 8.28 9.12 8.28C5.1 8.28 1.71 11.16 1.71 14.94C1.71 18.15 3.9 20.34 7.29 21.03L10.26 21.63C11.91 21.96 12.84 22.92 12.84 24.15C12.84 25.65 11.61 26.76 9.39 26.76C6.39 26.76 4.92 24.87 4.74 22.77L0.9 23.79C1.23 26.82 3.72 30.45 9.36 30.45C14.31 30.45 17.04 27.15 17.04 23.88C17.04 20.88 14.97 18.36 11.1 17.61L8.13 17.04C6.57 16.74 5.82 15.81 5.82 14.64C5.82 13.23 7.14 11.94 9.15 11.94C11.85 11.94 12.81 13.77 13.02 14.94L16.74 13.8ZM25.302 10.83H21.702V12.9C21.702 14.22 20.982 15.24 19.422 15.24H18.672V18.78H21.342V25.65C21.342 28.5 23.142 30.21 26.022 30.21C27.192 30.21 27.912 30 28.272 29.85V26.55C28.062 26.61 27.522 26.67 27.042 26.67C25.902 26.67 25.302 26.25 25.302 24.96V18.78H28.272V15.24H25.302V10.83ZM34.4248 20.94C34.5148 19.59 35.6548 18.03 37.7248 18.03C40.0048 18.03 40.9648 19.47 41.0248 20.94H34.4248ZM41.4148 24.78C40.9348 26.1 39.9148 27.03 38.0548 27.03C36.0748 27.03 34.4248 25.62 34.3348 23.67H44.8948C44.8948 23.61 44.9548 23.01 44.9548 22.44C44.9548 17.7 42.2248 14.79 37.6648 14.79C33.8848 14.79 30.4048 17.85 30.4048 22.56C30.4048 27.54 33.9748 30.45 38.0248 30.45C41.6548 30.45 43.9948 28.32 44.7448 25.77L41.4148 24.78ZM61.7238 15.24H57.5238L54.0138 25.14L50.3538 15.24H45.9738L52.0038 30H55.9938L61.7238 15.24ZM68.1415 30V15.24H64.1515V30H68.1415ZM63.6715 10.41C63.6715 11.73 64.7815 12.84 66.1315 12.84C67.5115 12.84 68.5915 11.73 68.5915 10.41C68.5915 9.03 67.5115 7.92 66.1315 7.92C64.7815 7.92 63.6715 9.03 63.6715 10.41ZM71.5132 25.98C71.5132 28.29 73.4332 30.42 76.5832 30.42C78.7732 30.42 80.1832 29.4 80.9332 28.23C80.9332 28.8 80.9932 29.61 81.0832 30H84.7432C84.6532 29.49 84.5632 28.44 84.5632 27.66V20.4C84.5632 17.43 82.8232 14.79 78.1432 14.79C74.1832 14.79 72.0532 17.34 71.8132 19.65L75.3532 20.4C75.4732 19.11 76.4332 18 78.1732 18C79.8532 18 80.6632 18.87 80.6632 19.92C80.6632 20.43 80.3932 20.85 79.5532 20.97L75.9232 21.51C73.4632 21.87 71.5132 23.34 71.5132 25.98ZM77.4232 27.45C76.1332 27.45 75.5032 26.61 75.5032 25.74C75.5032 24.6 76.3132 24.03 77.3332 23.88L80.6632 23.37V24.03C80.6632 26.64 79.1032 27.45 77.4232 27.45Z" fill="#EF4B4B"/>
<path d="M99.672 21.232C99.416 20 98.392 18.416 95.832 18.416C93.736 18.416 92.088 20.016 92.088 21.792C92.088 23.488 93.24 24.544 94.856 24.896L96.472 25.248C97.608 25.488 98.168 26.192 98.168 27.008C98.168 28 97.4 28.816 95.832 28.816C94.12 28.816 93.224 27.648 93.112 26.384L91.608 26.864C91.816 28.48 93.112 30.24 95.848 30.24C98.264 30.24 99.768 28.64 99.768 26.88C99.768 25.296 98.712 24.112 96.824 23.696L95.128 23.328C94.168 23.12 93.672 22.496 93.672 21.68C93.672 20.624 94.584 19.792 95.864 19.792C97.448 19.792 98.136 20.912 98.264 21.728L99.672 21.232ZM103.624 19.872H102.248V21.12C102.248 21.792 101.896 22.304 101.064 22.304H100.648V23.664H102.12V27.888C102.12 29.28 102.952 30.08 104.264 30.08C104.776 30.08 105.16 29.984 105.288 29.936V28.656C105.16 28.688 104.888 28.72 104.696 28.72C103.912 28.72 103.624 28.368 103.624 27.664V23.664H105.288V22.304H103.624V19.872ZM112.368 29.072C112.368 29.392 112.4 29.824 112.432 30H113.872C113.84 29.728 113.792 29.184 113.792 28.576V22.304H112.288V26.944C112.288 28.112 111.68 28.912 110.464 28.912C109.2 28.912 108.72 27.984 108.72 26.928V22.304H107.216V27.152C107.216 28.896 108.304 30.24 110.096 30.24C110.992 30.24 111.952 29.872 112.368 29.072ZM117.176 26.128C117.176 24.544 118.072 23.424 119.448 23.424C120.824 23.424 121.656 24.512 121.656 26.096C121.656 27.68 120.808 28.88 119.432 28.88C117.992 28.88 117.176 27.712 117.176 26.128ZM121.672 28.96C121.672 29.424 121.72 29.824 121.752 30H123.208C123.192 29.872 123.128 29.312 123.128 28.576V18.416H121.64V23.392C121.384 22.768 120.648 22.096 119.288 22.096C117.112 22.096 115.64 23.952 115.64 26.128C115.64 28.416 117.032 30.208 119.288 30.208C120.488 30.208 121.304 29.568 121.672 28.832V28.96ZM126.662 25.36C126.726 24.368 127.494 23.392 128.758 23.392C130.118 23.392 130.838 24.256 130.87 25.36H126.662ZM131.094 27.36C130.806 28.224 130.182 28.912 128.934 28.912C127.638 28.912 126.646 27.952 126.614 26.576H132.406C132.422 26.48 132.438 26.288 132.438 26.096C132.438 23.696 131.11 22.064 128.742 22.064C126.806 22.064 125.062 23.712 125.062 26.128C125.062 28.736 126.87 30.24 128.934 30.24C130.726 30.24 131.958 29.168 132.39 27.808L131.094 27.36ZM135.862 25.552C135.862 24.384 136.47 23.44 137.654 23.44C138.998 23.44 139.446 24.304 139.446 25.376V30H140.95V25.12C140.95 23.408 140.038 22.08 138.198 22.08C137.302 22.08 136.39 22.448 135.83 23.408V22.304H134.358V30H135.862V25.552ZM145.359 19.872H143.983V21.12C143.983 21.792 143.631 22.304 142.799 22.304H142.383V23.664H143.855V27.888C143.855 29.28 144.687 30.08 145.999 30.08C146.511 30.08 146.895 29.984 147.023 29.936V28.656C146.895 28.688 146.623 28.72 146.431 28.72C145.647 28.72 145.359 28.368 145.359 27.664V23.664H147.023V22.304H145.359V19.872Z" fill="#303037"/>
</svg>
