<svg width="152" height="41" viewBox="0 0 152 41" fill="none" xmlns="http://www.w3.org/2000/svg">
<path d="M17.856 14.72C17.344 12.16 15.232 8.832 9.728 8.832C5.44 8.832 1.824 11.904 1.824 15.936C1.824 19.36 4.16 21.696 7.776 22.432L10.944 23.072C12.704 23.424 13.696 24.448 13.696 25.76C13.696 27.36 12.384 28.544 10.016 28.544C6.816 28.544 5.248 26.528 5.056 24.288L0.96 25.376C1.312 28.608 3.968 32.48 9.984 32.48C15.264 32.48 18.176 28.96 18.176 25.472C18.176 22.272 15.968 19.584 11.84 18.784L8.672 18.176C7.008 17.856 6.208 16.864 6.208 15.616C6.208 14.112 7.616 12.736 9.76 12.736C12.64 12.736 13.664 14.688 13.888 15.936L17.856 14.72ZM26.9888 11.552H23.1488V13.76C23.1488 15.168 22.3808 16.256 20.7168 16.256H19.9168V20.032H22.7648V27.36C22.7648 30.4 24.6848 32.224 27.7568 32.224C29.0048 32.224 29.7728 32 30.1568 31.84V28.32C29.9328 28.384 29.3568 28.448 28.8448 28.448C27.6288 28.448 26.9888 28 26.9888 26.624V20.032H30.1568V16.256H26.9888V11.552ZM36.7198 22.336C36.8158 20.896 38.0318 19.232 40.2398 19.232C42.6718 19.232 43.6958 20.768 43.7598 22.336H36.7198ZM44.1758 26.432C43.6638 27.84 42.5758 28.832 40.5918 28.832C38.4798 28.832 36.7198 27.328 36.6238 25.248H47.8878C47.8878 25.184 47.9518 24.544 47.9518 23.936C47.9518 18.88 45.0398 15.776 40.1758 15.776C36.1438 15.776 32.4318 19.04 32.4318 24.064C32.4318 29.376 36.2398 32.48 40.5598 32.48C44.4318 32.48 46.9278 30.208 47.7278 27.488L44.1758 26.432ZM65.8388 16.256H61.3588L57.6148 26.816L53.7108 16.256H49.0388L55.4708 32H59.7268L65.8388 16.256ZM72.6843 32V16.256H68.4283V32H72.6843ZM67.9163 11.104C67.9163 12.512 69.1003 13.696 70.5403 13.696C72.0123 13.696 73.1643 12.512 73.1643 11.104C73.1643 9.632 72.0123 8.448 70.5403 8.448C69.1003 8.448 67.9163 9.632 67.9163 11.104ZM76.2808 27.712C76.2808 30.176 78.3288 32.448 81.6888 32.448C84.0248 32.448 85.5288 31.36 86.3288 30.112C86.3288 30.72 86.3928 31.584 86.4888 32H90.3928C90.2968 31.456 90.2008 30.336 90.2008 29.504V21.76C90.2008 18.592 88.3448 15.776 83.3528 15.776C79.1288 15.776 76.8568 18.496 76.6008 20.96L80.3768 21.76C80.5048 20.384 81.5288 19.2 83.3848 19.2C85.1768 19.2 86.0408 20.128 86.0408 21.248C86.0408 21.792 85.7528 22.24 84.8568 22.368L80.9848 22.944C78.3608 23.328 76.2808 24.896 76.2808 27.712ZM82.5848 29.28C81.2088 29.28 80.5368 28.384 80.5368 27.456C80.5368 26.24 81.4008 25.632 82.4888 25.472L86.0408 24.928V25.632C86.0408 28.416 84.3767 29.28 82.5848 29.28Z" fill="#303037"/>
<path d="M103.672 23.232C103.416 22 102.392 20.416 99.832 20.416C97.736 20.416 96.088 22.016 96.088 23.792C96.088 25.488 97.24 26.544 98.856 26.896L100.472 27.248C101.608 27.488 102.168 28.192 102.168 29.008C102.168 30 101.4 30.816 99.832 30.816C98.12 30.816 97.224 29.648 97.112 28.384L95.608 28.864C95.816 30.48 97.112 32.24 99.848 32.24C102.264 32.24 103.768 30.64 103.768 28.88C103.768 27.296 102.712 26.112 100.824 25.696L99.128 25.328C98.168 25.12 97.672 24.496 97.672 23.68C97.672 22.624 98.584 21.792 99.864 21.792C101.448 21.792 102.136 22.912 102.264 23.728L103.672 23.232ZM107.624 21.872H106.248V23.12C106.248 23.792 105.896 24.304 105.064 24.304H104.648V25.664H106.12V29.888C106.12 31.28 106.952 32.08 108.264 32.08C108.776 32.08 109.16 31.984 109.288 31.936V30.656C109.16 30.688 108.888 30.72 108.696 30.72C107.912 30.72 107.624 30.368 107.624 29.664V25.664H109.288V24.304H107.624V21.872ZM116.368 31.072C116.368 31.392 116.4 31.824 116.432 32H117.872C117.84 31.728 117.792 31.184 117.792 30.576V24.304H116.288V28.944C116.288 30.112 115.68 30.912 114.464 30.912C113.2 30.912 112.72 29.984 112.72 28.928V24.304H111.216V29.152C111.216 30.896 112.304 32.24 114.096 32.24C114.992 32.24 115.952 31.872 116.368 31.072ZM121.176 28.128C121.176 26.544 122.072 25.424 123.448 25.424C124.824 25.424 125.656 26.512 125.656 28.096C125.656 29.68 124.808 30.88 123.432 30.88C121.992 30.88 121.176 29.712 121.176 28.128ZM125.672 30.96C125.672 31.424 125.72 31.824 125.752 32H127.208C127.192 31.872 127.128 31.312 127.128 30.576V20.416H125.64V25.392C125.384 24.768 124.648 24.096 123.288 24.096C121.112 24.096 119.64 25.952 119.64 28.128C119.64 30.416 121.032 32.208 123.288 32.208C124.488 32.208 125.304 31.568 125.672 30.832V30.96ZM130.662 27.36C130.726 26.368 131.494 25.392 132.758 25.392C134.118 25.392 134.838 26.256 134.87 27.36H130.662ZM135.094 29.36C134.806 30.224 134.182 30.912 132.934 30.912C131.638 30.912 130.646 29.952 130.614 28.576H136.406C136.422 28.48 136.438 28.288 136.438 28.096C136.438 25.696 135.11 24.064 132.742 24.064C130.806 24.064 129.062 25.712 129.062 28.128C129.062 30.736 130.87 32.24 132.934 32.24C134.726 32.24 135.958 31.168 136.39 29.808L135.094 29.36ZM139.862 27.552C139.862 26.384 140.47 25.44 141.654 25.44C142.998 25.44 143.446 26.304 143.446 27.376V32H144.95V27.12C144.95 25.408 144.038 24.08 142.198 24.08C141.302 24.08 140.39 24.448 139.83 25.408V24.304H138.358V32H139.862V27.552ZM149.359 21.872H147.983V23.12C147.983 23.792 147.631 24.304 146.799 24.304H146.383V25.664H147.855V29.888C147.855 31.28 148.687 32.08 149.999 32.08C150.511 32.08 150.895 31.984 151.023 31.936V30.656C150.895 30.688 150.623 30.72 150.431 30.72C149.647 30.72 149.359 30.368 149.359 29.664V25.664H151.023V24.304H149.359V21.872Z" fill="#303037"/>
</svg>
