<svg width="53" height="53" viewBox="0 0 53 53" fill="none" xmlns="http://www.w3.org/2000/svg">
<path fill-rule="evenodd" clip-rule="evenodd" d="M26.5 53C41.1355 53 53 41.1355 53 26.5C53 11.8645 41.1355 0 26.5 0C11.8645 0 0 11.8645 0 26.5C0 41.1355 11.8645 53 26.5 53Z" fill="#FEF3E1"/>
<path fill-rule="evenodd" clip-rule="evenodd" d="M26.0058 14V17.4047C31.1358 17.4047 35.3333 21.4906 35.3333 26.4842C35.3333 28.243 34.8084 29.8889 33.8759 31.3077L32.1851 29.6618C32.71 28.6976 33.0015 27.6191 33.0015 26.4842C33.0015 22.7389 29.8532 19.6746 26.0058 19.6746V23.0795L21.3421 18.5397L26.0058 14ZM19.3319 26.5158C19.3319 30.2608 22.4798 33.3255 26.3275 33.3255V29.9205L30.9912 34.4604L26.3275 39V35.5953C21.1975 35.5953 17 31.5094 17 26.5158C17 24.7566 17.5246 23.0542 18.4574 21.6923L20.148 23.3379C19.6234 24.3027 19.3319 25.3809 19.3319 26.5158Z" fill="#FEAC21"/>
</svg>
