<svg width="72" height="72" viewBox="0 0 72 72" fill="none" xmlns="http://www.w3.org/2000/svg">
<g id="no appointment">
<path id="Path" d="M7.77291 65.2094C14.9685 71.8706 26.1727 71.546 32.9712 64.4802C39.7698 57.4139 39.6616 46.2056 32.728 39.272C25.7944 32.3384 14.5861 32.2302 7.52029 39.0288C0.453929 45.8273 0.129382 57.0315 6.7905 64.2276C7.09984 64.5726 7.42731 64.9001 7.77291 65.2094Z" fill="#FFE3E3"/>
<path id="Path_2" d="M70 10.8C70 8.14922 67.8773 6 65.2593 6H10.7407C8.12269 6 6 8.14922 6 10.8V18H70V10.8Z" fill="#FFE3E3"/>
<g id="Group">
<path id="Shape" fill-rule="evenodd" clip-rule="evenodd" d="M63.4857 4.8H65.8757C69.1743 4.8041 71.8468 7.4877 71.8509 10.8V61.2C71.8468 64.5123 69.1743 67.1959 65.8757 67.2H31.8725C24.539 73.715 13.4798 73.5791 6.30618 66.8871H6.29918L6.28867 66.876C5.91815 66.5426 5.56629 66.1887 5.23428 65.8166C-1.42703 58.6113 -1.5589 47.5072 4.92969 40.1449V10.8C4.93377 7.4877 7.60681 4.8041 10.9048 4.8H13.2948V1.2C13.2948 0.537305 13.8299 0 14.4899 0C15.1498 0 15.6849 0.537305 15.6849 1.2V4.8H25.245V1.2C25.245 0.537305 25.7801 0 26.4401 0C27.1 0 27.6351 0.537305 27.6351 1.2V4.8H37.1952V1.2C37.1952 0.537305 37.7303 0 38.3903 0C39.0502 0 39.5853 0.537305 39.5853 1.2V4.8H49.1455V1.2C49.1455 0.537305 49.6805 0 50.3405 0C51.0004 0 51.5355 0.537305 51.5355 1.2V4.8H61.0957V1.2C61.0957 0.537305 61.6307 0 62.2907 0C62.9506 0 63.4857 0.537305 63.4857 1.2V4.8ZM10.9048 7.2C8.92496 7.2 7.31973 8.81191 7.31973 10.8V16.8H69.4608V10.8C69.4608 8.81191 67.8556 7.2 65.8757 7.2H63.4857V10.8C63.4857 11.4627 62.9506 12 62.2907 12C61.6307 12 61.0957 11.4627 61.0957 10.8V7.2H51.5355V10.8C51.5355 11.4627 51.0004 12 50.3405 12C49.6805 12 49.1455 11.4627 49.1455 10.8V7.2H39.5853V10.8C39.5853 11.4627 39.0502 12 38.3903 12C37.7303 12 37.1952 11.4627 37.1952 10.8V7.2H27.6351V10.8C27.6351 11.4627 27.1 12 26.4401 12C25.7801 12 25.245 11.4627 25.245 10.8V7.2H15.6849V10.8C15.6849 11.4627 15.1498 12 14.4899 12C13.8299 12 13.2948 11.4627 13.2948 10.8V7.2H10.9048ZM7.90324 65.107C7.58523 64.8205 7.28297 64.517 6.99822 64.1977C0.794963 57.4646 1.10072 46.9834 7.68617 40.6266C14.2722 34.2697 24.7135 34.3764 31.1688 40.8674C37.6235 47.3578 37.7163 57.8426 31.3771 64.4473C25.0379 71.0525 14.6001 71.3455 7.90324 65.107ZM65.8757 64.8C67.8556 64.8 69.4608 63.1881 69.4608 61.2V19.2H7.31973V37.824C7.44347 37.7225 7.57329 37.6282 7.70185 37.5348C7.75576 37.4957 7.80946 37.4567 7.86239 37.4174C7.91069 37.3814 7.95874 37.3451 8.00675 37.3089C8.1368 37.2108 8.26657 37.113 8.40038 37.0201C8.77033 36.7693 9.15077 36.5303 9.53647 36.3C9.58906 36.2683 9.64081 36.2354 9.69247 36.2026C9.76977 36.1534 9.84686 36.1044 9.92625 36.0598C10.4497 35.7662 10.9801 35.4961 11.5251 35.2559C11.5933 35.2278 11.6624 35.2005 11.7317 35.173C11.8128 35.1409 11.8943 35.1086 11.9755 35.0748C12.3793 34.9055 12.7965 34.7449 13.2161 34.6031C13.3847 34.5462 13.5549 34.4961 13.7257 34.4459C13.7606 34.4356 13.7956 34.4254 13.8305 34.415C14.2109 34.2996 14.5961 34.1971 14.9858 34.1063C15.2 34.057 15.4135 34.009 15.63 33.9662C16.0396 33.8906 16.4522 33.8244 16.8671 33.7705C16.9394 33.7615 17.0114 33.7514 17.0835 33.7414C17.2027 33.7248 17.3218 33.7081 17.4418 33.6961C18.0475 33.6375 18.6573 33.6 19.2699 33.6C29.825 33.6129 38.378 42.2016 38.3903 52.8C38.3903 53.4158 38.3535 54.0275 38.2946 54.6363C38.2828 54.7574 38.2661 54.8777 38.2493 54.9981C38.2393 55.0695 38.2294 55.1408 38.2205 55.2123C38.168 55.6295 38.1049 56.0449 38.0262 56.4551C37.983 56.6725 37.9351 56.8863 37.8861 57.1008C37.7963 57.4934 37.6971 57.8818 37.578 58.2674C37.5695 58.2962 37.5611 58.3251 37.5526 58.3539C37.5012 58.5289 37.4499 58.7037 37.3913 58.8768C37.2489 59.3051 37.0867 59.7275 36.9134 60.1453C36.8882 60.2059 36.8647 60.267 36.8411 60.3281C36.8095 60.41 36.7779 60.4919 36.7424 60.5725C36.4997 61.125 36.2307 61.6646 35.936 62.1914C35.9006 62.255 35.8618 62.316 35.8228 62.3775C35.7891 62.4305 35.7552 62.4839 35.7231 62.5395C35.4867 62.9438 35.2382 63.341 34.9715 63.726C34.8885 63.8463 34.8067 63.9559 34.7191 64.0731C34.6792 64.1265 34.6381 64.1815 34.5951 64.2398C34.5451 64.3074 34.4963 64.3759 34.4475 64.4445C34.3621 64.5646 34.2766 64.6848 34.1838 64.8H65.8757Z" fill="#303037"/>
<path id="Path_3" d="M19.2694 39.5996C18.6095 39.5996 18.0744 40.1369 18.0744 40.7996V51.5996H12.0993C11.4394 51.5996 10.9043 52.1369 10.9043 52.7996C10.9043 53.4623 11.4394 53.9996 12.0993 53.9996H19.2694C19.9294 53.9996 20.4645 53.4623 20.4645 52.7996V40.7996C20.4645 40.1369 19.9294 39.5996 19.2694 39.5996Z" fill="#303037"/>
</g>
</g>
</svg>
